<svg xmlns="http://www.w3.org/2000/svg" viewBox="0 0 512 512">
  <!-- Background -->
  <rect width="512" height="512" rx="112" fill="#F5F5F7"/>

  <!-- 8 segments with iOS color palette, gap between segments -->
  <!-- Health: green -->
  <path d="M256 72 A184 184 0 0 1 378.4 119.6 L306.5 191.5 A96 96 0 0 0 256 168 Z" fill="#30D158"/>
  <!-- Career: blue -->
  <path d="M384.4 127.6 A184 184 0 0 1 440 256 L352 256 A96 96 0 0 0 313.5 198.5 Z" fill="#007AFF"/>
  <!-- Finance: orange -->
  <path d="M440 264 A184 184 0 0 1 384.4 392.4 L312.5 320.5 A96 96 0 0 0 352 264 Z" fill="#FF9F0A"/>
  <!-- Love: coral -->
  <path d="M378.4 398.4 A184 184 0 0 1 256 440 L256 352 A96 96 0 0 0 320.5 313.5 Z" fill="#FF6B6B"/>
  <!-- Family: light blue -->
  <path d="M248 440 A184 184 0 0 1 125.6 392.4 L197.5 320.5 A96 96 0 0 0 248 352 Z" fill="#5AC8FA"/>
  <!-- Hobbies: amber -->
  <path d="M119.6 384.4 A184 184 0 0 1 72 256 L160 256 A96 96 0 0 0 199.5 313.5 Z" fill="#FF9500"/>
  <!-- Personal dev: purple -->
  <path d="M72 248 A184 184 0 0 1 127.6 119.6 L199.5 191.5 A96 96 0 0 0 160 248 Z" fill="#BF5AF2"/>
  <!-- Spiritual: sky blue -->
  <path d="M133.6 113.6 A184 184 0 0 1 248 72 L248 160 A96 96 0 0 0 193.5 198.5 Z" fill="#64D2FF"/>

  <!-- Center white circle -->
  <circle cx="256" cy="256" r="44" fill="white" opacity="0.95"/>
</svg>
