<svg xmlns="http://www.w3.org/2000/svg" viewBox="0 0 512 512">
  <rect width="512" height="512" rx="96" fill="#F3EFE6"/>
  <circle cx="256" cy="256" r="196" fill="none" stroke="#D8D2C8" stroke-width="8"/>
  <path d="M256 60 A196 196 0 0 1 394.7 138.7 L316.3 217.1 A40 40 0 0 0 256 196 Z" fill="#6B7F5E"/>
  <path d="M394.7 138.7 A196 196 0 0 1 452 256 L356 256 A40 40 0 0 0 316.3 217.1 Z" fill="#4A6670"/>
  <path d="M452 256 A196 196 0 0 1 394.7 373.3 L316.3 294.9 A40 40 0 0 0 356 256 Z" fill="#8A7B4A"/>
  <path d="M394.7 373.3 A196 196 0 0 1 256 452 L256 316 A40 40 0 0 0 316.3 294.9 Z" fill="#9E6B6B"/>
  <path d="M256 452 A196 196 0 0 1 117.3 373.3 L195.7 294.9 A40 40 0 0 0 256 316 Z" fill="#A67C52"/>
  <path d="M117.3 373.3 A196 196 0 0 1 60 256 L156 256 A40 40 0 0 0 195.7 294.9 Z" fill="#7A6B8E"/>
  <path d="M60 256 A196 196 0 0 1 117.3 138.7 L195.7 217.1 A40 40 0 0 0 156 256 Z" fill="#5C7A72"/>
  <path d="M117.3 138.7 A196 196 0 0 1 256 60 L256 196 A40 40 0 0 0 195.7 217.1 Z" fill="#6E6860"/>
  <circle cx="256" cy="256" r="28" fill="#D4A017"/>
</svg>
