<svg xmlns="http://www.w3.org/2000/svg" viewBox="0 0 96 96" role="img" aria-label="Life Balance">
  <rect width="96" height="96" rx="20" fill="#F3EFE6"/>
  <circle cx="48" cy="48" r="40" fill="none" stroke="#D8D2C8" stroke-width="1.5"/>
  <path d="M48 8 A40 40 0 0 1 76.28 28 L58.28 28 A10 10 0 0 0 48 18 Z" fill="#6B7F5E"/>
  <path d="M76.28 28 A40 40 0 0 1 76.28 68 L58.28 58 A10 10 0 0 0 58.28 38 Z" fill="#4A6670"/>
  <path d="M76.28 68 A40 40 0 0 1 48 88 L48 68 A10 10 0 0 0 58.28 58 Z" fill="#8A7B4A"/>
  <path d="M48 88 A40 40 0 0 1 19.72 68 L37.72 58 A10 10 0 0 0 48 68 Z" fill="#9E6B6B"/>
  <path d="M19.72 68 A40 40 0 0 1 19.72 28 L37.72 38 A10 10 0 0 0 37.72 58 Z" fill="#A67C52"/>
  <path d="M19.72 28 A40 40 0 0 1 48 8 L48 28 A10 10 0 0 0 37.72 38 Z" fill="#7A6B8E"/>
  <path d="M48 8 A40 40 0 0 1 62.36 14.64 L54.64 22.36 A10 10 0 0 0 48 18 Z" fill="#5C7A72"/>
  <path d="M62.36 14.64 A40 40 0 0 1 76.28 28 L58.28 28 A10 10 0 0 0 54.64 22.36 Z" fill="#6E6860"/>
  <circle cx="48" cy="48" r="6" fill="#D4A017"/>
</svg>
