<svg xmlns="http://www.w3.org/2000/svg" viewBox="0 0 96 96" role="img" aria-label="Life Balance">
  <path d="M48 8 A40 40 0 0 1 76.28 28 L58.28 28 A10 10 0 0 0 48 18 Z" fill="#0d9488" stroke="#fff" stroke-width="1.5" stroke-linejoin="round"/>
  <path d="M76.28 28 A40 40 0 0 1 76.28 68 L58.28 58 A10 10 0 0 0 58.28 38 Z" fill="#14b8a6" stroke="#fff" stroke-width="1.5" stroke-linejoin="round"/>
  <path d="M76.28 68 A40 40 0 0 1 48 88 L48 68 A10 10 0 0 0 58.28 58 Z" fill="#2dd4bf" stroke="#fff" stroke-width="1.5" stroke-linejoin="round"/>
  <path d="M48 88 A40 40 0 0 1 19.72 68 L37.72 58 A10 10 0 0 0 48 68 Z" fill="#5eead4" stroke="#fff" stroke-width="1.5" stroke-linejoin="round"/>
  <path d="M19.72 68 A40 40 0 0 1 19.72 28 L37.72 38 A10 10 0 0 0 37.72 58 Z" fill="#0f766e" stroke="#fff" stroke-width="1.5" stroke-linejoin="round"/>
  <path d="M19.72 28 A40 40 0 0 1 48 8 L48 28 A10 10 0 0 0 37.72 38 Z" fill="#115e59" stroke="#fff" stroke-width="1.5" stroke-linejoin="round"/>
  <path d="M48 8 A40 40 0 0 1 62.36 14.64 L54.64 22.36 A10 10 0 0 0 48 18 Z" fill="#134e4a" stroke="#fff" stroke-width="1.5" stroke-linejoin="round"/>
  <path d="M62.36 14.64 A40 40 0 0 1 76.28 28 L58.28 28 A10 10 0 0 0 54.64 22.36 Z" fill="#0f766e" stroke="#fff" stroke-width="1.5" stroke-linejoin="round"/>
  <circle cx="48" cy="48" r="40" fill="none" stroke="#fff" stroke-width="2" opacity="0.9"/>
</svg>
